PathFileType	4	(X/Y/Z)	D:\MotionData\NordSprintingStudy\BertecTesting2023-09-14\Generated_files\Trimmed_running_0600000001-Feet.trc
DataRate	CameraRate	NumFrames	NumMarkers	Units	OrigDataRate	OrigDataStartFrame	OrigNumFrames
200.00	200.00	      19	10	mm	200.00	1188	      1900
Frame#	Time	r_calc			r_toe			r_meta			r_ankle			r_mankle			l_calc			l_toe			l_meta			l_ankle			l_mankle			
		X1	Y1	Z1	X2	Y2	Z2	X3	Y3	Z3	X4	Y4	Z4	X5	Y5	Z5	X6	Y6	Z6	X7	Y7	Z7	X8	Y8	Z8	X9	Y9	Z9	X10	Y10	Z10	

1188	5.935	759.99915	241.54446	738.87024	632.69678	187.02629	570.15204	652.45251	143.80865	620.63953	766.87128	175.97116	668.50751	760.46832	255.53851	635.33167	886.52380	291.29523	55.69889	1100.74744	332.12311	55.06179	1041.22925	377.12387	46.64483	950.53577	350.29999	104.90531	981.86407	270.21851	114.64526	
1189	5.940	766.81488	242.15521	730.01831	650.45984	187.49184	554.32501	665.70190	145.58757	605.83124	777.44196	176.97156	659.81000	773.01917	256.40976	626.02258	856.98108	292.96960	57.07417	1071.16797	333.06787	54.70071	1011.68652	378.02554	46.57821	922.37964	351.79480	106.30535	953.70258	271.65341	115.92526	
1190	5.945	772.03192	244.18826	720.36688	667.64349	187.71889	536.66571	678.49005	146.38260	588.92908	786.75293	177.27917	649.71716	784.74573	257.10843	615.97119	827.15393	295.77890	58.71949	1041.02405	333.75772	53.96000	982.00122	379.33194	46.36527	894.73480	354.77435	107.22084	924.39862	273.72327	116.97648	
1191	5.950	775.90814	243.79550	708.52527	684.52979	187.69411	517.36847	691.18427	147.62099	570.08405	795.09094	176.95508	638.50885	795.63312	257.71466	605.41107	797.25806	298.21933	61.28522	1010.89130	335.15048	53.74170	952.32526	380.64072	46.37279	867.00439	357.31183	107.61227	894.89941	275.35162	118.02801	
1192	5.955	778.44769	243.00626	694.46857	702.43811	187.73940	496.97842	704.24664	150.75252	549.49847	802.17340	175.05627	626.38202	806.71570	258.40054	594.13611	767.67389	299.48151	64.66219	980.53870	335.81802	53.32483	922.73535	381.21744	46.17900	837.80310	359.34256	109.07133	865.78345	276.44269	119.32734	
1193	5.960	780.80042	242.63779	678.56940	721.34961	188.94315	475.59814	718.32745	149.43428	527.63007	809.69611	175.70844	612.46484	816.53979	259.13022	581.23730	737.97424	300.81839	68.49259	950.34143	334.61710	53.07068	892.12622	381.67230	46.27161	809.74023	360.41800	111.92091	837.19263	277.08273	121.42868	
1194	5.965	783.08112	242.05768	661.07434	741.77393	191.50429	453.25046	733.92413	150.15057	504.77307	817.57275	176.11137	596.81757	827.62476	258.28128	567.39185	708.71161	300.91226	73.44140	919.91602	334.45770	52.93421	861.98395	381.47021	46.56020	781.23883	360.90936	114.43903	808.91449	277.35703	123.86951	
1195	5.970	786.03351	241.06087	641.87708	763.91467	194.13499	430.38309	750.98950	150.34665	480.87537	826.38055	176.74561	580.19006	838.91534	257.94968	552.65643	679.64716	300.90509	79.45477	889.83972	334.40872	52.98374	831.67987	381.46689	46.93143	753.09839	361.24228	118.27970	780.95117	277.57230	127.05732	
1196	5.975	789.73578	240.22525	621.36871	787.66077	195.25183	407.66531	769.72815	150.92769	456.53662	836.01031	177.86867	562.62994	850.20306	258.08694	537.31738	651.24811	301.25192	86.00593	859.47144	334.05762	52.67160	802.08167	381.31488	47.85019	724.36450	361.74863	122.54247	753.64520	277.84262	130.78207	
1197	5.980	795.10803	238.89281	599.10944	812.24579	193.37492	386.21603	790.12054	148.61389	432.61502	846.75006	176.74431	543.61267	861.09161	258.67834	519.78802	623.16766	301.84949	93.88963	829.03510	333.73807	52.55014	772.23444	381.29657	48.38396	697.15094	362.10785	127.47722	726.93011	278.16934	134.71478	
1198	5.985	801.82562	237.73576	575.49164	837.91107	191.79695	365.35333	812.39209	150.59111	408.47003	858.81940	176.60590	524.32123	876.39142	258.19226	503.91867	596.13562	302.52713	102.90453	798.71680	333.54153	52.63742	742.77209	381.61319	49.06253	670.54626	363.10547	133.12340	700.45929	279.56857	139.21031	
1199	5.990	810.31860	236.74831	550.81726	866.93463	200.29549	341.83334	836.96466	151.36559	384.82327	872.30634	176.42337	504.43903	890.98499	258.37070	486.13940	570.33813	303.83395	112.39618	768.50824	333.70056	52.61868	713.86926	382.41971	50.07403	644.64459	364.59927	139.32410	675.18439	281.34235	144.17621	
1200	5.995	821.05090	235.47604	525.53296	895.13934	197.75406	324.45541	863.01965	152.19971	361.84219	887.14252	176.51256	484.23767	906.69843	258.47504	468.03232	545.85779	305.36557	123.10223	738.58447	334.04620	52.94028	685.58276	383.37665	50.93668	619.98645	366.21265	146.59648	650.99084	283.79529	149.39946	
1201	6.000	833.66718	235.42076	499.97595	925.53064	198.84689	305.93658	890.63959	152.99548	339.77692	903.53876	176.32076	463.96313	923.31812	258.70831	449.60281	523.46387	307.38373	134.67964	708.80164	334.41266	53.48500	657.81116	384.42386	51.65270	596.72595	368.15259	154.46407	628.18750	287.15695	154.64272	
1202	6.005	848.68286	235.99013	473.95877	956.84680	199.72061	288.57791	919.60638	154.20300	319.04443	921.15833	177.32256	443.91556	941.79016	259.13556	431.12527	503.30963	309.62836	147.36330	679.53339	334.79938	54.09114	630.57849	385.61530	52.65743	575.28387	370.66614	162.51857	607.47876	291.01474	160.22377	
1203	6.010	865.44293	236.43663	447.87784	989.48792	200.81754	272.47610	949.26050	154.68019	299.30414	940.42950	177.57750	424.23874	962.13281	259.71591	412.49316	485.95670	312.64114	160.81021	651.21698	335.35358	54.72347	604.33942	387.04678	54.12340	557.21173	374.08389	171.14613	589.51855	295.63037	166.16104	
1204	6.015	884.74097	235.80090	421.96603	1022.51392	200.82692	257.66153	980.15198	155.28000	280.98010	961.06824	178.77498	404.71887	982.60992	260.43735	394.79556	471.10019	316.39478	176.04073	624.25549	336.47653	55.62455	578.64978	388.90598	56.82561	542.20490	378.30270	180.23222	574.79651	300.66406	172.45316	
1205	6.020	904.86719	237.04073	396.48749	1055.32507	201.27769	243.49506	1011.50128	155.70905	264.01251	982.75085	179.80206	385.53256	1005.53107	262.38669	376.70041	458.42502	321.50183	192.79393	599.78674	338.39359	57.53253	554.39355	390.90720	62.03383	528.01984	382.75250	189.69838	560.76764	305.73080	179.61401	
1206	6.025	927.26331	239.30521	371.45483	1088.81213	201.16278	230.77225	1043.26074	156.17117	248.07451	1005.19330	181.03539	367.38156	1029.55603	263.64520	359.15912	447.08902	327.55707	210.95053	577.56964	340.54733	60.67078	531.80695	392.88275	70.40878	514.95331	387.54578	200.73232	546.76849	310.78958	188.79173	
